# xmcd
#
# Track frame offsets:
#	150
#	16480
#	32531
#	54685
#	70316
#	91115
#	104881
#	120124
#	135596
#	151872
#	166821
#	182340
#	200389
#	218275
#	237296
#	251737
#	267493
#	283212
#	295545
#	314195
#	330536
#
# Disc length: 4598 seconds
#
# Revision: 1
# Processed by: cddbd v1.5.2PL0 Copyright (c) Steve Scherf et al.
# Submitted via: audiograbber 1.83.01
#
DISCID=2911f415
DTITLE=Various Artist - Hit Country 2014
DYEAR=2013
DGENRE=Country
TTITLE0=Florida Georgia Line - Get Your Shine On
TTITLE1=Kenny Chesney - Pirate Flag
TTITLE2=Carrie Underwood - Two Black Cadillacs
TTITLE3=Jasmine Rae - If I Want To
TTITLE4=Brad Paisley - Beat This Summer
TTITLE5=Zac Brown Band - Jump Right In
TTITLE6=Adam Brand - I Was Here
TTITLE7=Lee Kernaghan - Flying With The King
TTITLE8=Blake Shelton - Sure Be Cool If You Did
TTITLE9=Miranda Lambert - Fastest Girl In Town
TTITLE10=The Band Perry - Done
TTITLE11=McAlister Kemp - Home
TTITLE12=Baylou - Novocaine
TTITLE13=Sheryl Crow - Easy
TTITLE14=Dean Brody ft. Great Big Sea - It's Friday
TTITLE15=Craig Campbell and Troy Cassar-Daley - The Sunshine Club
TTITLE16=Kacey Musgraves - Merry Go 'Round
TTITLE17=Sara Storer - Lovegrass
TTITLE18=The Wolfe Brothers - The Girl, The Bottle, The Memory
TTITLE19=Jayne Denham - Addicted To The Diesel
TTITLE20=Catherine Britt - Charlestown Road
EXTD=
EXTT0=
EXTT1=
EXTT2=
EXTT3=
EXTT4=
EXTT5=
EXTT6=
EXTT7=
EXTT8=
EXTT9=
EXTT10=
EXTT11=
EXTT12=
EXTT13=
EXTT14=
EXTT15=
EXTT16=
EXTT17=
EXTT18=
EXTT19=
EXTT20=
PLAYORDER=
